<?xml version="1.0" standalone="no"?><!DOCTYPE svg PUBLIC "-//W3C//DTD SVG 1.1//EN" "http://www.w3.org/Graphics/SVG/1.1/DTD/svg11.dtd"><svg t="1736328268320" class="icon" viewBox="0 0 1024 1024" version="1.1" xmlns="http://www.w3.org/2000/svg" p-id="4326" xmlns:xlink="http://www.w3.org/1999/xlink" width="200" height="200"><path d="M448 416A96 96 0 1 0 352 512 96 96 0 0 0 448 416zM352 448a32 32 0 1 1 32-32 32 32 0 0 1-32 32zM704 384V320h-64v64H576v64h64v64h64V448h64V384zM512 608a32 32 0 0 1-32-32h-64a96 96 0 0 0 192 0h-64a32 32 0 0 1-32 32z" fill="#1296db" p-id="4327"></path><path d="M896 384V256a96 96 0 0 0-96-96h-576A96 96 0 0 0 128 256v128a64 64 0 0 0-64 64v96a64 64 0 0 0 64 64v128A96 96 0 0 0 224 832v96a31.36 31.36 0 0 0 18.56 28.8A34.56 34.56 0 0 0 256 960a30.08 30.08 0 0 0 20.48-7.68L421.12 832h378.88a96 96 0 0 0 96-96v-128a64 64 0 0 0 64-64V448a64 64 0 0 0-64-64z m-64 352a32 32 0 0 1-32 32H387.84L320 832l-30.08 27.52V768h-64a32 32 0 0 1-32-32V256a32 32 0 0 1 32-32h576A32 32 0 0 1 832 256z" fill="#1296db" p-id="4328"></path></svg>